<svg xmlns="http://www.w3.org/2000/svg" viewBox="0 0 400 400" width="400" height="400" role="img" aria-label="Profilbild executive">
  <defs>
    <linearGradient id="bg-executive" x1="0.1" y1="0" x2="0.9" y2="1">
      <stop offset="0" stop-color="#A07E24"/>
      <stop offset="1" stop-color="#3B2C08"/>
    </linearGradient>
    <radialGradient id="glow-executive" cx="0.5" cy="0.2" r="0.78">
      <stop offset="0" stop-color="#FFFFFF" stop-opacity="0.26"/>
      <stop offset="1" stop-color="#FFFFFF" stop-opacity="0"/>
    </radialGradient>
    <clipPath id="clip-executive"><circle cx="200" cy="200" r="200"/></clipPath>
  </defs>

  <g clip-path="url(#clip-executive)">
    <rect width="400" height="400" fill="url(#bg-executive)"/>
    <circle cx="200" cy="80" r="230" fill="url(#glow-executive)"/>
    <g fill="none" stroke="#FFFFFF" stroke-opacity="0.09" stroke-width="1">
      <circle cx="200" cy="200" r="186"/><circle cx="200" cy="200" r="150"/>
    </g>
    <circle cx="200" cy="204" r="116" fill="#FFFFFF" fill-opacity="0.06"/>

    <!-- Haar hinten -->
    <g fill="#33322C"></g>

    <!-- Hals -->
    <path d="M176 214h48v58a24 24 0 0 1-48 0z" fill="#CBAC88"/>

    <!-- Kleidung -->
    <path d="M164 282 C180 300 220 300 236 282 L258 400 H142 Z" fill="#FBF7EF"/><path d="M164 282 L200 322 L236 282 L226 276 L200 300 L174 276 Z" fill="#E2DED7"/><path d="M200 316 L213 340 L207 400 H193 L187 340 Z" fill="#A99861"/><g fill="#1B1A16"><path d="M28 400 C28 322 88 290 152 281 L200 336 L182 400 Z"/><path d="M372 400 C372 322 312 290 248 281 L200 336 L218 400 Z"/></g><path d="M152 281 L200 336 L248 281" fill="none" stroke="#FFFFFF" stroke-opacity="0.12" stroke-width="2"/>

    <!-- Ohren -->
    <g fill="#CBAC88">
      <ellipse cx="139" cy="188" rx="9" ry="13"/><ellipse cx="261" cy="188" rx="9" ry="13"/>
    </g>

    <!-- Kopf -->
    <ellipse cx="200" cy="180" rx="62" ry="70" fill="#E7C49B"/>
    <path d="M200 110 a62 70 0 0 1 0 140 a44 70 0 0 0 0 -140 Z" fill="#000000" fill-opacity="0.05"/>

    <g fill="#2A2118" fill-opacity="0.82"><ellipse cx="177" cy="181" rx="5" ry="6.2"/><ellipse cx="223" cy="181" rx="5" ry="6.2"/></g><g fill="none" stroke="#2A2118" stroke-linecap="round"><path d="M165 163 C172 157 184 157 190 162" stroke-width="4" stroke-opacity="0.42"/><path d="M210 162 C216 157 228 157 235 163" stroke-width="4" stroke-opacity="0.42"/><path d="M200 188 v14 c0 4 3 6 7 6" stroke-width="3.4" stroke-opacity="0.24"/><path d="M184 214 C192 224 208 224 216 214" stroke-width="4.4" stroke-opacity="0.46"/></g>
    

    <!-- Haar vorn -->
    <g fill="#33322C"><path d="M144 196 C142 138 168 96 202 96 C240 96 268 136 264 190 C258 172 252 160 248 154 C244 142 232 134 200 134 C168 134 154 144 150 156 C146 164 146 178 144 196 Z"/></g>
    
    

    <path d="M0 344c62-28 122-40 200-40s138 12 200 40" fill="none" stroke="#F2D98B" stroke-opacity="0.20" stroke-width="2"/>
  </g>

  <!-- Rollensymbol -->
  <g transform="translate(320 320)">
    <circle r="55" fill="#0E1016"/>
    <circle r="55" fill="none" stroke="#F2D98B" stroke-opacity="0.55" stroke-width="2"/>
    <g stroke="#F2D98B" stroke-width="3.4" fill="none" stroke-linecap="round" stroke-linejoin="round"><path d="M-14 9.5 L-11.5 -9.5 L-4 -1.5 L0 -12.5 L4 -1.5 L11.5 -9.5 L14 9.5 Z"/><path d="M-11 14 H11"/></g>
  </g>

  <circle cx="200" cy="200" r="199" fill="none" stroke="#FFFFFF" stroke-opacity="0.16" stroke-width="2"/>
</svg>
